<svg width="16" height="14" fill="none" xmlns="http://www.w3.org/2000/svg"><path fill="#B0BECA" fill-opacity=".4" d="M0 0h2v5H0zm0 7h2v7H0z"/><path fill="#B0BECA" d="M14 4h2v4h-2zm0 5h2v5h-2zm0-9h2v3h-2z"/><path d="M2 7.5c3.5 0 7.833-5 12-5" stroke="#B0BECA" stroke-opacity=".4"/><path d="M2 9.5c4.583 0 7.833-4 12-4" stroke="#B0BECA" stroke-opacity=".4" stroke-width="3"/><path d="M2 1h12" stroke="#B0BECA" stroke-opacity=".4" stroke-width="2"/><path d="M2 12.5h12" stroke="#B0BECA" stroke-opacity=".4" stroke-width="3"/><path d="M2 4c4 0 6.583 6 12 6" stroke="#B0BECA" stroke-opacity=".4" stroke-width="2"/><path d="M2 2.5c5 0 6.583 5 12 5" stroke="#B0BECA" stroke-opacity=".4"/></svg>