<svg width="16" height="16" fill="none" xmlns="http://www.w3.org/2000/svg"><path d="M10.093 13.625A5.986 5.986 0 0 1 8 14a5.988 5.988 0 0 1-2.093-.375l-1.01 1.75A7.976 7.976 0 0 0 8 16c1.1 0 2.15-.222 3.104-.624l-1.011-1.751Zm1.731-1.001A5.994 5.994 0 0 0 13.917 9h2.021a7.993 7.993 0 0 1-3.103 5.374l-1.011-1.75ZM13.917 7a5.994 5.994 0 0 0-2.092-3.623l1.01-1.751A7.993 7.993 0 0 1 15.938 7h-2.02Zm-3.824-4.625A5.988 5.988 0 0 0 8 2c-.736 0-1.441.133-2.093.375L4.896.625A7.975 7.975 0 0 1 8 0c1.1 0 2.15.222 3.104.624l-1.01 1.751Z" fill="#B0BECA" fill-opacity=".4"/><path d="M4.176 3.377A5.988 5.988 0 0 0 2 8a5.99 5.99 0 0 0 2.176 4.624l-1.01 1.75A7.988 7.988 0 0 1 0 8a7.987 7.987 0 0 1 3.165-6.374l1.01 1.75Z" fill="#B0BECA"/><path d="M9.146 2.11c.325.062.641.151.946.265-1.209 2.35-2.765 3.475-4.27 3.929-1.106.333-2.133.305-2.876.205 1.937.361 5.745.57 8.878-3.138a.22.22 0 0 1 .01-.01l-.01.016a6.03 6.03 0 0 1 1.331 1.551c-2.159 2.436-4.586 3.38-6.679 3.665l.37.033c2.187.208 4.727.707 6.663 1.754a5.985 5.985 0 0 1-.472.882c-1.76-.953-4.144-1.437-6.286-1.64a27.615 27.615 0 0 0-1.773-.112c.274.043.556.106.844.192 1.504.454 3.062 1.575 4.27 3.923a5.947 5.947 0 0 1-.95.266C8.066 11.89 6.725 11.02 5.534 10.66c-1.205-.364-2.316-.22-2.954-.085A5.977 5.977 0 0 1 2 8c0-.92.207-1.79.577-2.57.637.135 1.749.28 2.956-.084 1.192-.359 2.534-1.231 3.613-3.237Z" fill="#B0BECA" fill-opacity=".4"/></svg>